<?xml version="1.0" encoding="UTF-8" standalone="no"?>
<!-- Created with Inkscape (http://www.inkscape.org/) -->

<svg
   version="1.1"
   id="svg1"
   width="4096"
   height="1666.636"
   viewBox="0 0 4096.0001 1666.6361"
   sodipodi:docname="clear-outside-apy.svg"
   xml:space="preserve"
   inkscape:version="1.4 (e7c3feb100, 2024-10-09)"
   xmlns:inkscape="http://www.inkscape.org/namespaces/inkscape"
   xmlns:sodipodi="http://sodipodi.sourceforge.net/DTD/sodipodi-0.dtd"
   xmlns:xlink="http://www.w3.org/1999/xlink"
   xmlns="http://www.w3.org/2000/svg"
   xmlns:svg="http://www.w3.org/2000/svg"><defs
     id="defs1"><rect
       x="3914.8948"
       y="1525.1779"
       width="6552.9736"
       height="796.65912"
       id="rect10" /><rect
       x="3902.6606"
       y="1517.0217"
       width="1623.05"
       height="432.26962"
       id="rect9" /><linearGradient
       id="linearGradient2795"><stop
         style="stop-color:#b8b8b8;stop-opacity:0.49803922;"
         offset="0"
         id="stop2797" /><stop
         style="stop-color:#7f7f7f;stop-opacity:0;"
         offset="1"
         id="stop2799" /></linearGradient><linearGradient
       id="linearGradient2787"><stop
         style="stop-color:#7f7f7f;stop-opacity:0.5;"
         offset="0"
         id="stop2789" /><stop
         style="stop-color:#7f7f7f;stop-opacity:0;"
         offset="1"
         id="stop2791" /></linearGradient><linearGradient
       id="linearGradient3676"><stop
         style="stop-color:#b2b2b2;stop-opacity:0.5;"
         offset="0"
         id="stop3678" /><stop
         style="stop-color:#b3b3b3;stop-opacity:0;"
         offset="1"
         id="stop3680" /></linearGradient><linearGradient
       id="linearGradient3236"><stop
         style="stop-color:#f4f4f4;stop-opacity:1"
         offset="0"
         id="stop3244" /><stop
         style="stop-color:white;stop-opacity:1"
         offset="1"
         id="stop3240" /></linearGradient><linearGradient
       id="linearGradient4671"><stop
         style="stop-color:#ffd43b;stop-opacity:1;"
         offset="0"
         id="stop4673" /><stop
         style="stop-color:#ffe873;stop-opacity:1"
         offset="1"
         id="stop4675" /></linearGradient><linearGradient
       id="linearGradient4689"><stop
         style="stop-color:#5a9fd4;stop-opacity:1;"
         offset="0"
         id="stop4691" /><stop
         style="stop-color:#306998;stop-opacity:1;"
         offset="1"
         id="stop4693" /></linearGradient><linearGradient
       x1="224.23996"
       y1="144.75717"
       x2="-65.308502"
       y2="144.75717"
       id="linearGradient2987"
       xlink:href="#linearGradient4671"
       gradientUnits="userSpaceOnUse"
       gradientTransform="translate(100.2702,99.61116)" /><linearGradient
       x1="172.94208"
       y1="77.475983"
       x2="26.670298"
       y2="76.313133"
       id="linearGradient2990"
       xlink:href="#linearGradient4689"
       gradientUnits="userSpaceOnUse"
       gradientTransform="translate(100.2702,99.61116)" /><linearGradient
       inkscape:collect="always"
       xlink:href="#linearGradient4671"
       id="linearGradient2255"
       gradientUnits="userSpaceOnUse"
       gradientTransform="matrix(0.562541,0,0,0.567972,-11.5974,-7.60954)"
       x1="224.23996"
       y1="144.75717"
       x2="-65.308502"
       y2="144.75717" /><linearGradient
       inkscape:collect="always"
       xlink:href="#linearGradient4689"
       id="linearGradient2258"
       gradientUnits="userSpaceOnUse"
       gradientTransform="matrix(0.562541,0,0,0.567972,-11.5974,-7.60954)"
       x1="172.94208"
       y1="76.176224"
       x2="26.670298"
       y2="76.313133" /><radialGradient
       inkscape:collect="always"
       xlink:href="#linearGradient2795"
       id="radialGradient2801"
       cx="61.518883"
       cy="132.28575"
       fx="61.518883"
       fy="132.28575"
       r="29.036913"
       gradientTransform="matrix(1,0,0,0.177966,0,108.7434)"
       gradientUnits="userSpaceOnUse" /></defs><sodipodi:namedview
     id="namedview1"
     pagecolor="#ffffff"
     bordercolor="#999999"
     borderopacity="1"
     inkscape:showpageshadow="2"
     inkscape:pageopacity="0"
     inkscape:pagecheckerboard="0"
     inkscape:deskcolor="#d1d1d1"
     inkscape:zoom="0.1385189"
     inkscape:cx="2317.3734"
     inkscape:cy="1566.5733"
     inkscape:window-width="1920"
     inkscape:window-height="974"
     inkscape:window-x="0"
     inkscape:window-y="0"
     inkscape:window-maximized="1"
     inkscape:current-layer="g1" /><g
     inkscape:groupmode="layer"
     inkscape:label="Image"
     id="g1"><g
       id="g37"><path
         id="rect8"
         style="fill:#181818;stroke-width:46.7785;stroke-linecap:round;stroke-linejoin:round"
         d="M 0,0 H 4096 V 1666.6358 L 0,1666.0129 Z"
         sodipodi:nodetypes="ccccc" /><path
         id="rect11"
         style="fill:#ffffff;fill-opacity:1;stroke-width:31.2426;stroke-linecap:round;stroke-linejoin:round"
         d="m 3067.4518,139.95242 h 888.3075 v 886.71438 h -888.3075 z" /><text
         xml:space="preserve"
         id="text8"
         style="font-style:normal;font-variant:normal;font-weight:normal;font-stretch:normal;font-size:6px;font-family:Bega;-inkscape-font-specification:Bega;text-align:center;writing-mode:lr-tb;direction:ltr;white-space:pre;shape-inside:url(#rect9);display:inline;fill:#181818;fill-opacity:1;stroke:none;stroke-width:37.009;stroke-linecap:round;stroke-linejoin:round;stroke-dasharray:none;stroke-opacity:1"
         transform="matrix(0.78184761,0,0,0.78123567,-20.82587,0.00915511)" /><path
         d="m 4772.1822,2050.1777 v -76.2 c -37.2,11.4 -72.6,16.2 -100.8,16.2 -54,0 -86.4,-25.2 -86.4,-93 v -76.8 c 0,-67.8 32.4,-93 86.4,-93 28.2,0 63.6,4.8 98.4,16.2 v -74.4 c -30.6,-10.2 -64.8,-15 -100.2,-15 -115.8,0 -175.8,52.8 -175.8,172.8 v 65.4 c 0,119.4 59.4,172.2 175.8,172.2 35.4,0 69,-4.8 102.6,-14.4 z m 314.3999,9 v -75 h -168 v -324.6 h -88.8 v 399.6 z m 319.8004,0 v -73.2 h -178.2 v -90.6 h 166.8 v -72.6 h -166.8 v -89.4 h 175.8 v -73.8 h -264.6 v 399.6 z m 294.5994,0 h 91.8 c -33.6,-157.8 -72.6,-271.8 -124.8,-399.6 h -101.4 c -52.2,127.8 -93,241.8 -126.6,399.6 h 90 c 4.8,-27.6 10.2,-53.4 15,-77.4 h 141 c 4.8,24 10.2,49.8 15,77.4 z m -85.8,-313.8 c 18.6,50.4 37.2,104.4 54,169.2 h -108 c 17.4,-64.8 35.4,-118.8 54,-169.2 z m 226.1996,313.8 h 88.8 v -138.6 h 62.4 c 28.8,39.6 57.6,90.6 79.8,138.6 h 99.6 c -25.8,-53.4 -54.6,-105 -91.2,-157.8 52.2,-20.4 78,-61.2 78,-115.2 0,-87 -57,-126.6 -150.6,-126.6 h -166.8 z m 155.4,-328.8 c 48,0 70.8,16.8 70.8,59.4 0,43.8 -22.8,61.8 -70.2,61.8 h -67.2 v -121.2 z m 520.2002,334.2 c 113.4,0 167.4,-52.2 167.4,-165.6 v -79.2 c 0,-112.2 -54,-165.6 -167.4,-165.6 -114,0 -168,52.8 -168,165.6 v 79.2 c 0,113.4 54,165.6 168,165.6 z m 0,-71.4 c -54,0 -76.8,-25.8 -76.8,-94.2 v -79.2 c 0,-67.8 22.8,-93.6 76.8,-93.6 53.4,0 76.8,26.4 76.8,93.6 v 79.2 c 0,68.4 -23.4,94.2 -76.8,94.2 z m 392.3997,71.4 c 107.4,0 160.2,-46.8 160.2,-144.6 v -260.4 h -91.2 v 259.8 c 0,52.2 -21.6,73.2 -69,73.2 -48,0 -69,-21 -69,-73.2 v -259.8 h -91.2 v 260.4 c 0,97.8 52.2,144.6 160.2,144.6 z m 210.6005,-330 h 115.8 v 324.6 h 88.8 v -324.6 h 116.4 v -75 h -321 z m 491.4002,330 c 110.4,0 165,-52.8 165,-127.8 0,-67.2 -39,-102.6 -108.6,-113.4 l -40.8,-6 c -45.6,-6.6 -60,-20.4 -60,-45 0,-27.6 24,-43.8 76.2,-43.8 31.8,0 70.2,4.8 118.2,20.4 v -77.4 c -48.6,-12.6 -88.2,-17.4 -126.6,-17.4 -108,0 -162.6,54.6 -162.6,126 0,67.8 37.8,102 108,111.6 l 42,6.6 c 45.6,6.6 60,20.4 60,46.2 0,27.6 -24,46.2 -77.4,46.2 -33.6,0 -79.2,-6 -130.2,-23.4 v 79.2 c 54.6,13.2 99,18 136.8,18 z m 220.7997,-5.4 h 88.8 v -399.6 h -88.8 z m 319.8001,0 c 114,0 168,-50.4 168,-163.8 v -72 c 0,-112.2 -54,-163.8 -168,-163.8 h -155.4 v 399.6 z m -66.6,-327.6 h 66.6 c 53.4,0 76.8,24.6 76.8,91.8 v 72 c 0,68.4 -22.8,92.4 -76.8,92.4 h -66.6 z m 567.0006,327.6 v -73.2 h -178.2 v -90.6 h 166.8 v -72.6 h -166.8 v -89.4 h 175.8 v -73.8 h -264.6 v 399.6 z m 429.5997,0 h 91.8 c -33.6,-157.8 -72.6,-271.8 -124.8,-399.6 h -101.4 c -52.2,127.8 -93,241.8 -126.6,399.6 h 90 c 4.8,-27.6 10.2,-53.4 15,-77.4 h 141 c 4.8,24 10.2,49.8 15,77.4 z m -85.8,-313.8 c 18.6,50.4 37.2,104.4 54,169.2 h -108 c 17.4,-64.8 35.4,-118.8 54,-169.2 z m 226.1993,313.8 h 88.8 v -133.2 h 75.6 c 96.6,0 151.2,-43.8 151.2,-133.2 0,-90 -54.6,-133.2 -151.2,-133.2 h -164.4 z m 153,-203.4 h -64.2 v -125.4 h 64.2 c 49.8,0 70.8,15.6 70.8,62.4 0,46.2 -21,63 -70.8,63 z m 535.2,-196.2 h -94.2 c -20.4,56.4 -49.8,114 -84.6,174 -34.8,-60 -65.4,-117.6 -86.4,-174 h -96 c 34.8,82.8 81,169.2 136.2,255.6 v 144 h 88.8 v -144 c 54.6,-85.2 102.6,-172.2 136.2,-255.6 z"
         id="text9"
         style="font-weight:600;font-size:600px;font-family:Bega;-inkscape-font-specification:'Bega Semi-Bold';text-align:center;text-anchor:middle;white-space:pre;fill:#fe9d25;stroke-width:37.009;stroke-linecap:round;stroke-linejoin:round"
         transform="matrix(0.68935425,0,0,0.68881474,-2919.4623,64.741863)"
         aria-label="CLEAR OUTSIDE APY" /><path
         style="fill:#fefefe;stroke-width:0.78154"
         d="m 2262.5056,560.83122 c -0.6582,-1.71372 1.5162,-3.80692 3.0016,-2.88961 0.4573,0.28246 0.8316,1.42339 0.8316,2.53539 0,2.43724 -2.9293,2.70793 -3.8332,0.35422 z"
         id="path28" /><path
         style="fill:#fefefe;stroke-width:0.78154"
         d="m 2222.5554,578.24496 c 0,-0.50612 1.1727,-1.14423 2.6061,-1.41802 1.7476,-0.33381 2.6062,-0.0306 2.6062,0.92021 0,0.81813 -1.1025,1.41803 -2.6062,1.41803 -1.4334,0 -2.6061,-0.4141 -2.6061,-0.92022 z"
         id="path26" /><path
         id="path12"
         style="fill:#035485;fill-opacity:1;stroke-width:31.2426;stroke-linecap:round;stroke-linejoin:round"
         d="m 1115.1183,139.95242 h 888.3076 v 886.71438 h -888.3076 z" /><path
         style="fill:#fefefe;stroke-width:0.78154"
         d="m 1284.8596,771.78102 c -13.8771,-1.4647 -22.8406,-3.9424 -34.0989,-9.42568 -17.5036,-8.52505 -25.9415,-14.39426 -39.4626,-27.44941 -8.1288,-7.84866 -24.0006,-30.30737 -28.7603,-40.69598 -3.2541,-7.10224 -8.4436,-27.13985 -9.7698,-37.72241 -1.3907,-11.09837 0.81,-28.96815 5.3625,-43.5421 3.9354,-12.59859 4.8136,-14.38639 12.2445,-24.92626 3.2312,-4.58325 6.8133,-10.18048 7.9601,-12.43831 4.2364,-8.34128 33.9203,-35.21681 47.2574,-42.78656 15.0558,-8.54511 42.9167,-11.65663 78.9898,-8.82163 13.1957,1.03704 24.3058,3.56854 31.6734,7.21694 2.0136,0.99717 7.6667,2.41614 12.5622,3.15327 8.4692,1.27521 9.1141,1.23164 13.2914,-0.8978 3.7694,-1.92146 4.3904,-2.70675 4.3904,-5.5516 0,-4.10996 -5.5474,-13.49323 -9.2524,-15.65024 -6.5382,-3.8064 -49.5294,-13.2392 -72.324,-15.86879 -5.9788,-0.68971 -8.0754,-2.26227 -8.0754,-6.05682 0,-0.81735 5.1229,-9.16833 11.3843,-18.55772 25.0005,-37.49004 53.4681,-59.82685 89.2134,-70.00006 35.1644,-10.00792 57.5261,-9.88475 90.0476,0.49595 11.6734,3.72612 30.313,11.92769 38.7588,17.05419 8.712,5.28809 26.9094,21.57776 31.7158,28.39065 9.807,13.90132 14.1993,19.413 16.8607,21.1575 2.5189,1.65108 5.4611,1.84232 26.8726,1.74669 37.9999,-0.16971 48.0002,2.99539 74.4978,23.5786 11.9729,9.30057 18.6871,16.64687 27.8472,30.46902 3.3538,5.06058 6.9278,10.10973 7.9424,11.22035 1.0146,1.11061 1.8447,2.82663 1.8447,3.81337 0,0.98675 0.945,4.76547 2.0999,8.39718 3.2865,10.3343 6.2282,29.57234 6.2343,40.77184 0,5.61597 0.7468,13.46738 1.6528,17.4476 1.8649,8.19338 1.5055,8.01888 12.5558,6.09607 3.6054,-0.62738 7.081,-1.77352 7.7234,-2.54698 1.0023,-1.20677 2.8727,-14.69169 4.782,-34.4764 0.7974,-8.26428 1.7716,-9.05686 8.8601,-7.20926 6.1759,1.60972 22.7851,9.40904 32.9381,15.46694 3.3162,1.9787 8.2551,4.84791 10.9754,6.37604 2.8546,1.60363 5.6748,4.19269 6.6699,6.12325 0.9482,1.83967 2.7737,4.75107 4.0565,6.46978 1.283,1.71872 3.344,5.13655 4.5799,7.59517 4.4851,8.9218 3.1102,8.54963 31.6103,8.55619 25.6014,0.006 28.8687,0.36979 39.3531,4.38325 21.2455,8.13288 41.2218,32.63954 47.7919,58.63061 2.88,11.39325 3.3295,15.53016 2.1199,19.5148 -0.5678,1.8708 -1.2575,5.04204 -1.5326,7.04721 -0.2751,2.00517 -1.4154,5.40598 -2.5341,7.55734 -1.1187,2.15137 -2.2899,5.36391 -2.6029,7.13899 -1.8906,10.72264 -17.0162,29.08276 -30.9282,37.54172 -9.6284,5.85442 -14.6484,8.08967 -22.5024,10.0195 -6.4291,1.57973 -31.0278,1.73763 -295.7746,1.89863 -158.8194,0.0966 -292.5154,-0.2205 -297.1021,-0.70463 z"
         id="path19" /><path
         id="path11"
         style="fill:#444444;fill-opacity:1;stroke-width:31.2426;stroke-linecap:round;stroke-linejoin:round"
         d="m 2091.4277,139.95242 h 888.3076 v 886.71438 h -888.3076 z" /><g
         id="g34"
         transform="matrix(0.78184761,0,0,0.78123567,-20.82587,0.00915511)"><path
           sodipodi:type="star"
           style="fill:#ffffff;fill-opacity:1;stroke:#ffffff;stroke-width:37.009;stroke-linecap:round;stroke-linejoin:round;stroke-dasharray:none;stroke-opacity:1"
           id="path8"
           inkscape:flatsided="false"
           sodipodi:sides="5"
           sodipodi:cx="3489.2544"
           sodipodi:cy="563.6203"
           sodipodi:r1="114.22891"
           sodipodi:r2="59.08707"
           sodipodi:arg1="0.94677325"
           sodipodi:arg2="1.5162409"
           inkscape:rounded="0"
           inkscape:randomized="0"
           d="m 3555.9989,656.32098 -63.5226,-33.70152 -70.7603,33.12471 12.4225,-70.8279 -53.3696,-57.06097 71.2001,-10.07253 37.7761,-68.39033 31.5815,64.60274 76.7166,14.79342 -51.6816,49.99921 z"
           inkscape:transform-center-x="-8.4980683"
           inkscape:transform-center-y="6.7430402"
           transform="matrix(0.75074158,0.33817419,-0.33817419,0.75074158,1143.5992,-927.27129)" /><path
           sodipodi:type="star"
           style="fill:#ffffff;fill-opacity:1;stroke:#ffffff;stroke-width:37.009;stroke-linecap:round;stroke-linejoin:round;stroke-dasharray:none;stroke-opacity:1"
           id="path8-3"
           inkscape:flatsided="false"
           sodipodi:sides="5"
           sodipodi:cx="3489.2544"
           sodipodi:cy="563.6203"
           sodipodi:r1="114.22891"
           sodipodi:r2="59.08707"
           sodipodi:arg1="0.94677325"
           sodipodi:arg2="1.5162409"
           inkscape:rounded="0"
           inkscape:randomized="0"
           d="m 3555.9989,656.32098 -63.5226,-33.70152 -70.7603,33.12471 12.4225,-70.8279 -53.3696,-57.06097 71.2001,-10.07253 37.7761,-68.39033 31.5815,64.60274 76.7166,14.79342 -51.6816,49.99921 z"
           inkscape:transform-center-x="-1.8959595"
           inkscape:transform-center-y="3.7737621"
           transform="matrix(0.31061563,-0.22342701,0.22342701,0.31061563,1677.9108,1292.663)" /><path
           sodipodi:type="star"
           style="fill:#ffffff;fill-opacity:1;stroke:#ffffff;stroke-width:37.009;stroke-linecap:round;stroke-linejoin:round;stroke-dasharray:none;stroke-opacity:1"
           id="path8-1"
           inkscape:flatsided="false"
           sodipodi:sides="5"
           sodipodi:cx="3489.2544"
           sodipodi:cy="563.6203"
           sodipodi:r1="114.22891"
           sodipodi:r2="59.08707"
           sodipodi:arg1="0.94677325"
           sodipodi:arg2="1.5162409"
           inkscape:rounded="0"
           inkscape:randomized="0"
           d="m 3555.9989,656.32098 -63.5226,-33.70152 -70.7603,33.12471 12.4225,-70.8279 -53.3696,-57.06097 71.2001,-10.07253 37.7761,-68.39033 31.5815,64.60274 76.7166,14.79342 -51.6816,49.99921 z"
           inkscape:transform-center-x="5.9654991"
           inkscape:transform-center-y="4.0391369"
           transform="matrix(0.40103137,0.51815781,-0.51815781,0.40103137,1927.1118,-945.15489)" /><path
           style="fill:#fefefe"
           d="m 3391.3333,1091.1757 c -10.954,-0.8892 -35.3925,-4.4122 -44.6667,-6.4389 -40.6851,-8.8912 -46.7921,-10.692 -70.6667,-20.8378 -5.5,-2.3372 -13.9,-5.824 -18.6666,-7.7484 -19.8482,-8.0128 -50.1555,-26.4981 -74,-45.1345 -11.0028,-8.5995 -54.5667,-52.26871 -63.5293,-63.6828 -17.2062,-21.91251 -35.6878,-51.72832 -44.8326,-72.32698 -15.227,-34.29927 -24.6974,-64.85104 -31.1032,-100.33968 -3.4552,-19.14254 -4.9593,-73.55318 -2.7089,-98 2.6923,-29.24854 11.1183,-63.52206 22.7574,-92.56745 7.0974,-17.7115 27.8373,-60.17525 34.5194,-70.67656 12.554,-19.72917 31.2358,-42.03002 54.4556,-65.00475 33.3916,-33.03904 46.5051,-42.66863 90.6555,-66.57047 13.8199,-7.48174 52.0827,-22.36712 67.7861,-26.37084 15.0463,-3.8362 59.9887,-13.16474 68.6666,-14.2529 10.4475,-1.31005 25.9062,-1.53972 27.0441,-0.4018 1.3032,1.30316 -5.9191,9.69084 -11.0441,12.82613 -47.1819,28.86451 -105.6469,109.31418 -124.6361,171.50312 -5.3421,17.49529 -13.0422,50.3455 -15.6693,66.84886 -2.497,15.68603 -2.8572,23.31355 -2.8018,59.33333 0.067,43.79768 0.1621,44.75314 8.2773,83.33333 7.0656,33.59062 38.97,102.95644 61.0987,132.83932 17.6336,23.81269 60.0168,65.76873 82.1823,81.35397 14.6558,10.30488 45.1561,27.07709 67.5489,37.14534 22.1442,9.95642 43.0633,17.19403 64.6667,22.37343 28.4241,6.8147 33.0208,7.4772 61.838,8.9124 15.4408,0.769 26.5123,1.8931 27.6088,2.803 2.7577,2.2887 0.4378,5.4995 -9.809,13.5761 -11.236,8.8563 -15.221,11.3909 -21.3984,13.6101 -2.6983,0.9694 -8.8061,3.5485 -13.5727,5.7315 -34.621,15.855 -82.4645,29.5588 -124.6667,35.7083 -13.4801,1.9642 -53.061,3.4519 -65.3333,2.4556 z"
           id="path18" /></g><path
         id="path13"
         style="fill:#5f9cca;fill-opacity:1;stroke-width:31.2426;stroke-linecap:round;stroke-linejoin:round"
         d="M 136.94977,139.95242 H 1025.2574 V 1026.6668 H 136.94977 Z" /><g
         id="g33"
         transform="matrix(0.78184761,0,0,0.78123567,-20.82587,0.00915511)"><path
           style="fill:#fefefe"
           d="m 760.0472,473.99777 c -14.42006,-2.89082 -17.41267,-9.15039 -12.14601,-25.40556 1.41233,-4.35906 4.11868,-21.42556 6.01412,-37.92556 3.61356,-31.45652 7.20523,-55.47182 11.16483,-74.65231 1.38486,-6.70836 4.80816,-6.76714 8.18877,-0.1406 3.17075,6.21519 5.94658,16.6367 9.44487,35.45958 1.36292,7.33333 3.95279,20.23333 5.75526,28.66666 4.97206,23.26309 6.65815,37.55037 6.76608,57.33334 l 0.0982,18 -13.33334,0.1962 c -7.33333,0.10792 -17.21208,-0.58137 -21.95278,-1.53175 z"
           id="path33" /><path
           style="fill:#fefefe"
           d="m 611.33332,514.93551 c -6.48366,-4.13937 -8.22248,-7.01371 -11.05167,-18.26886 -1.4747,-5.86667 -5.45253,-17.13732 -8.83963,-25.0459 -3.3871,-7.90858 -7.67235,-19.00858 -9.52279,-24.66667 -1.85043,-5.65808 -3.91237,-11.48743 -4.58207,-12.9541 -6.63372,-14.52802 -14.39507,-37.33127 -15.37464,-45.17147 -0.87291,-6.98659 -0.74969,-7.49519 1.81598,-7.49519 1.63724,0 4.24405,2.02585 6.43388,5 2.02478,2.75 6.48034,8.0348 9.90124,11.74401 3.42089,3.70921 7.28465,8.80921 8.58612,11.33334 1.30147,2.52412 5.64173,8.18931 9.64501,12.58931 4.00329,4.4 10.23171,12.35 13.84093,17.66667 3.60923,5.31667 7.09074,9.66667 7.73668,9.66667 1.7669,0 22.78741,24.5173 27.74429,32.35959 8.28535,13.10826 5.0424,22.54543 -10.43166,30.35671 -10.29238,5.19557 -20.50214,6.33312 -25.90167,2.88589 z"
           id="path32" /><path
           style="fill:#fefefe"
           d="m 920.66665,519.37813 c -0.73334,-0.22623 -4.93334,-1.16707 -9.33333,-2.09076 -13.03282,-2.73597 -19.25037,-7.78437 -19.30369,-15.67384 -0.0271,-4.01344 4.32096,-14.6902 6.63009,-16.28022 0.5325,-0.36666 2.03487,-2.76666 3.33862,-5.33333 2.99222,-5.89076 18.71336,-26.92798 25.54068,-34.17722 2.84481,-3.02061 6.36231,-7.20266 7.81667,-9.29344 1.45436,-2.09077 5.7798,-7.11519 9.61209,-11.16537 6.8019,-7.18865 13.69887,-16.48939 13.69887,-18.4733 0,-2.59157 16.17144,-16.224 19.24568,-16.224 2.55486,0 -2.23432,27.08221 -6.48408,36.66667 -0.97548,2.2 -3.12577,8.2 -4.77842,13.33333 -1.65264,5.13333 -3.44221,9.93333 -3.97681,10.66667 -0.5346,0.73333 -1.38614,3.06291 -1.89231,5.17684 -0.50617,2.11393 -3.99756,11.11393 -7.75864,20 -3.76109,8.88607 -8.11164,21.5547 -9.6679,28.15252 -2.33218,9.88738 -3.40301,12.28623 -6.09187,13.64701 -2.92043,1.47796 -13.13622,2.13566 -16.59565,1.06844 z"
           id="path31" /><path
           style="fill:#fefefe"
           d="m 513.53655,623.80789 c -2.45489,-0.70671 -7.45876,-3.65259 -11.11973,-6.54642 -3.66096,-2.89382 -7.20068,-5.26149 -7.86605,-5.26149 -0.66537,0 -3.46149,-1.96827 -6.21361,-4.37393 -2.75211,-2.40566 -7.54795,-6.15566 -10.65742,-8.33334 -11.33537,-7.93855 -14.39007,-10.18551 -18.99053,-13.96895 -5.32313,-4.37777 -21.87958,-17.56515 -33.92032,-27.01787 -4.45623,-3.49842 -9.73609,-8.29842 -11.73303,-10.66667 -4.09413,-4.85539 -4.80489,-10.88982 -1.50046,-12.73908 2.82926,-1.58333 13.3912,0.87341 23.16944,5.3893 4.05433,1.87241 10.05433,4.31709 13.33333,5.43263 3.279,1.11554 11.36182,4.3965 17.96182,7.29101 11.26875,4.94206 26.79004,10.25566 59.00117,20.19863 16.05027,4.95442 18.50253,7.32592 17.22364,16.65641 -1.23376,9.00124 -8.87736,31.94076 -11.2619,33.79852 -2.47666,1.92954 -10.97508,1.99842 -17.42635,0.14125 z"
           id="path30" /><path
           style="fill:#fefefe"
           d="m 1016,626.10432 c -15.3368,-10.34689 -21.36373,-23.98791 -15.6571,-35.43768 2.8093,-5.63651 3.7578,-6.31323 15.6571,-11.1705 6.9666,-2.84377 19.8158,-7.21048 28.5538,-9.7038 8.7379,-2.49331 27.1802,-8.97397 40.983,-14.40145 29.1275,-11.45342 44.2996,-15.45927 47.2765,-12.48235 3.1615,3.16155 -0.097,10.00504 -6.2609,13.14974 -2.8343,1.44595 -8.0817,5.17437 -11.6609,8.28535 -3.5792,3.11099 -9.4439,7.88805 -13.0329,10.61569 -24.8998,18.92428 -40.9527,31.7663 -49.7158,39.77182 -11.6328,10.6271 -15.5614,12.81209 -24.8255,13.80716 -5.5183,0.59273 -7.4452,0.17832 -11.3173,-2.43398 z"
           id="path29" /><path
           style="fill:#fefefe"
           d="m 474.66666,769.30491 c -4.03334,-0.55665 -9.57611,-1.98302 -12.31728,-3.1697 -5.19758,-2.25009 -15.59823,-3.96032 -37.01606,-6.08673 -6.96666,-0.69167 -21.72703,-2.15896 -32.80081,-3.26065 -19.8017,-1.97001 -31.98676,-5.14057 -36.41798,-9.47599 -1.58132,-1.54714 -1.59699,-2.19229 -0.0971,-3.99953 3.57346,-4.30576 10.38789,-6.49353 31.31591,-10.05399 11.73333,-1.99617 28.23333,-4.88136 36.66666,-6.41153 26.56862,-4.82067 41.6338,-7.01668 53.48131,-7.79581 10.33566,-0.6797 11.75145,-0.48492 14.18843,1.95206 4.41518,4.41519 6.33204,19.51427 4.34461,34.22255 -0.89981,6.65924 -2.24461,12.85771 -2.98845,13.77438 -1.46389,1.80403 -6.84904,1.89348 -18.35923,0.30494 z"
           id="path25" /><path
           style="fill:#fefefe"
           d="m 1049.8059,776.41057 c -6.5961,-1.29023 -7.4857,-4.24083 -7.6514,-25.37989 -0.1364,-17.38985 0.1459,-20.14075 2.4095,-23.48209 2.8627,-4.22564 4.2118,-4.25606 20.7693,-0.46834 22.5229,5.15237 28.641,6.21963 46.6667,8.14068 30.6827,3.26995 65.6233,8.59214 70.2194,10.69589 4.7556,2.1768 7.1001,7.08518 4.2566,8.9115 -3.3025,2.12107 -10.9159,3.87665 -34.2667,7.9015 -12.7182,2.19218 -28.3182,5.11618 -34.6667,6.49779 -6.3484,1.38161 -16.9426,3.22907 -23.5426,4.10547 -6.6,0.87641 -15.2602,2.13498 -19.2449,2.79684 -7.2316,1.20118 -19.5356,1.33958 -24.9492,0.28065 z"
           id="path24" /><path
           style="fill:#fefefe"
           d="m 405.84459,955.38454 c -3.05664,-2.23507 -1.45712,-6.21705 4.94723,-12.31604 2.92727,-2.78769 10.01454,-9.7068 15.74948,-15.37579 7.40974,-7.32451 12.89148,-11.43066 18.94293,-14.18937 5.17245,-2.358 10.65417,-6.19723 13.96251,-9.77894 2.99572,-3.24324 8.99572,-8.68476 13.33334,-12.09227 4.33762,-3.40751 11.18658,-9.23579 15.21991,-12.95174 9.95713,-9.1736 23.43111,-16.07495 28.18513,-14.43638 7.18564,2.47668 23.81487,28.95465 23.81487,37.91934 0,6.36071 -6.2601,10.59828 -25.33333,17.14856 -9.9,3.39994 -23.1,7.54911 -29.33334,9.22038 -6.23333,1.67127 -17.33333,5.8924 -24.66666,9.38028 -15.89392,7.55948 -17.12364,8.08608 -24,10.27736 -2.93334,0.93476 -5.93334,2.11204 -6.66667,2.61617 -1.63657,1.12508 -10.26867,3.73027 -16.992,5.12823 -3.29391,0.6849 -5.73063,0.49788 -7.1634,-0.54979 z"
           id="path22" /><path
           style="fill:#fefefe"
           d="m 1103.3333,958.13397 c -12.0083,-4.01765 -28.5097,-11.82584 -42.4092,-20.06731 -2.7917,-1.6553 -8.4917,-3.75955 -12.6666,-4.67611 -4.175,-0.91656 -13.2909,-3.94213 -20.2575,-6.7235 -6.9667,-2.78137 -15.5392,-6.1094 -19.05,-7.39561 -11.17691,-4.09478 -16.60481,-14.33307 -12.9529,-24.43224 2.10786,-5.82917 13.9126,-22.26347 16.7831,-23.36496 3.4986,-1.34254 9.721,-0.91252 14.2643,0.98579 2.3607,0.98637 10.1431,6.65671 17.2943,12.60076 7.1511,5.94405 17.6504,13.91235 23.3316,17.70733 5.6813,3.79498 15.4296,11.53634 21.6629,17.20302 6.2333,5.66668 14.0333,12.64135 17.3333,15.49927 14.1472,12.25194 21.044,21.21908 19.4717,25.31656 -1.1548,3.00935 -8.4003,2.16645 -22.805,-2.653 z"
           id="path21" /><path
           style="fill:#fefefe"
           d="m 756.66665,963.21232 c -1.46667,-0.35649 -6.86667,-1.56378 -12,-2.68286 -44.69572,-9.74382 -58.99153,-14.88203 -83.59984,-30.04748 -12.81122,-7.89522 -39.69082,-29.7172 -45.30224,-36.77824 -1.97282,-2.48248 -5.1424,-5.73711 -7.04352,-7.23253 -7.51496,-5.91127 -23.566,-32.79096 -31.73097,-53.13791 -8.20271,-20.44099 -12.46159,-33.78676 -15.00833,-47.0306 -2.88719,-15.01422 -4.06687,-49.68822 -2.11967,-62.30273 2.01329,-13.04267 8.08586,-40.29271 9.35954,-42 0.54708,-0.73333 2.70334,-6.13333 4.79167,-12 7.64658,-21.48115 14.86148,-33.12046 38.14053,-61.52954 4.11794,-5.02542 13.11794,-14.54684 20,-21.15872 10.51013,-10.09753 15.50047,-13.66045 31.1795,-22.26103 25.94528,-14.23204 30.58677,-16.09045 55.75211,-22.32264 37.72102,-9.34162 65.92675,-9.72582 100.41875,-1.36785 22.82857,5.53173 34.26169,9.55855 51.75711,18.2292 22.36223,11.08263 36.77209,21.73238 51.19483,37.83605 34.23695,38.22718 54.44478,78.3342 61.73912,122.53524 4.39299,26.61998 1.89462,61.3686 -6.07207,84.45335 -2.89845,8.39871 -8.70489,23.89861 -10.08428,26.91927 -0.66975,1.46667 -3.27794,7.2398 -5.79597,12.82919 -5.75409,12.77258 -12.88357,23.38725 -27.6529,41.17081 -13.43514,16.17708 -32.60651,34.82138 -43.2851,42.09509 -13.1256,8.94049 -48.06367,23.87922 -63.9716,27.35283 -6.6,1.44115 -17.4,3.84694 -24,5.3462 -11.47536,2.60675 -40.68875,4.5379 -46.66667,3.0849 z"
           id="path20" /><path
           style="fill:#fefefe"
           d="m 558.33376,1106.3333 c -0.34,-0.9167 -0.18307,-7.0667 0.34874,-13.6667 0.72486,-8.9957 2.03377,-14.5035 5.22815,-22 2.34366,-5.5 6.35366,-15.308 8.91112,-21.7955 2.55745,-6.4876 5.18452,-12.7876 5.83792,-14 1.39831,-2.5947 7.93488,-22.2504 11.81826,-35.5378 3.14181,-10.75008 5.70855,-17.8812 7.37513,-20.49018 2.85232,-4.46524 36.02482,2.37767 43.95008,9.06614 4.35549,3.67579 6.45824,9.26409 5.5372,14.71574 -0.64711,3.8302 -3.10824,7.4238 -10.19011,14.879 -14.6224,15.3934 -31.32864,35.9113 -37.4672,46.0155 -2.32577,3.8284 -6.70741,9.6489 -17.31079,22.9955 -7.06101,8.8878 -19.84693,21.4165 -21.89629,21.4558 -0.8382,0.016 -1.8022,-0.7208 -2.14221,-1.6375 z"
           id="path17" /><path
           style="fill:#fefefe"
           d="m 958.06897,1098.2902 c -7.37128,-7.5404 -17.30232,-18.9943 -22.06899,-25.453 -18.42244,-24.9621 -30.99315,-40.5561 -40.4437,-50.1706 -14.37569,-14.625 -15.82867,-18.6232 -8.88963,-24.46203 2.2,-1.85118 4,-3.87201 4,-4.49074 0,-2.31144 10.19184,-11.54311 15.33333,-13.88878 6.84009,-3.1206 8.20528,-3.08775 17.36625,0.41796 8.91316,3.41087 9.11619,3.77374 19.26045,34.42359 3.51934,10.6334 7.35797,21.1334 8.53029,23.3334 3.24201,6.084 8.73209,19.9132 13.52984,34.0808 2.37426,7.0111 5.33821,14.7225 6.58656,17.1366 1.24835,2.414 3.11604,7.1777 4.15041,10.5859 5.15009,16.9692 0.29962,16.5463 -17.35481,-1.5131 z"
           id="path16" /><path
           style="fill:#fefefe"
           d="m 764.42674,1162.705 c -1.59862,-1.9623 -4.09642,-7.1237 -5.55067,-11.4698 -2.54715,-7.6122 -3.69455,-13.1054 -6.942,-33.2352 -0.82814,-5.1334 -2.90376,-17.1334 -4.61249,-26.6667 -9.522,-53.1252 -10.15034,-63.1713 -4.316,-69.0056 2.42781,-2.4278 3.82977,-2.5453 20.13529,-1.6877 30.31768,1.5947 31.78037,3.6268 25.20734,35.0204 -2.26546,10.8201 -5.08787,27.7729 -6.27203,37.6729 -2.57822,21.5549 -6.72936,47.9532 -10.82714,68.8529 -0.8428,4.2985 -3.57391,4.5062 -6.8223,0.5188 z"
           id="path14" /></g><path
         style="fill:#fefefe;stroke-width:0.78154"
         d="m 565.55979,1429.1496 c -3.11255,-0.7914 -3.10884,-0.7958 0.78185,-0.9185 2.15007,-0.068 3.90924,0.3455 3.90924,0.9185 0,1.1476 -0.17736,1.1476 -4.69109,0 z"
         id="path7" /><g
         id="g36"
         transform="matrix(0.78123567,0,0,0.78123567,1.5624713,15.624713)"><path
           style="fill:#306998;fill-opacity:1;stroke-width:7.56434"
           d="m 4488.9538,306.84166 c -34.6723,0.16111 -67.7836,3.11816 -96.9181,8.2735 -85.8266,15.16274 -101.4094,46.89967 -101.4094,105.42796 v 77.29809 h 202.8188 v 25.76602 h -202.8188 -76.1162 c -58.9448,0 -110.5585,35.42922 -126.7026,102.82773 -18.6221,77.25433 -19.4481,125.46229 0,206.12822 14.417,60.0446 48.847,102.82771 107.7918,102.82773 h 69.7337 v -92.66315 c 0,-66.94365 57.9212,-125.9935 126.7027,-125.99351 h 202.5824 c 56.3918,0 101.4095,-46.43115 101.4094,-103.06411 V 420.54312 c 0,-54.96504 -46.3692,-96.25452 -101.4094,-105.42796 -34.8412,-5.79977 -70.992,-8.4346 -105.6643,-8.2735 z m -109.6829,62.16941 c 20.9498,0 38.058,17.38773 38.058,38.76723 0,21.30372 -17.1082,38.53085 -38.058,38.53085 -21.0249,-10e-6 -38.0581,-17.22714 -38.0581,-38.53085 0,-21.37949 17.0332,-38.76723 38.0581,-38.76723 z"
           id="path1948" /><path
           style="fill:#ffd43b;fill-opacity:1;stroke-width:7.56434"
           d="m 4721.3208,523.60723 v 90.06291 c 0,69.82455 -59.1977,128.59374 -126.7027,128.59375 h -202.5824 c -55.4907,0 -101.4094,47.49257 -101.4094,103.06411 v 193.127 c 0,54.9651 47.7959,87.2949 101.4094,103.0641 64.201,18.8777 125.7665,22.2893 202.5824,0 51.0605,-14.7836 101.4095,-44.5358 101.4094,-103.0641 v -77.29807 h -202.5824 v -25.76602 h 202.5824 101.4095 c 58.9448,0 80.91,-41.11527 101.4093,-102.82773 21.1751,-63.53202 20.2741,-124.62834 0,-206.12822 -14.5672,-58.67991 -42.3895,-102.82773 -101.4093,-102.82773 z M 4607.3829,1012.689 c 21.025,0 38.0581,17.2271 38.0581,38.5308 0,21.3795 -17.0332,38.7673 -38.0581,38.7673 -20.9498,0 -38.058,-17.3878 -38.058,-38.7673 0,-21.3037 17.1082,-38.5308 38.058,-38.5308 z"
           id="path1950" /></g></g></g></svg>
